<svg id="Layer_1" data-name="Layer 1" xmlns="http://www.w3.org/2000/svg" viewBox="0 0 796.3 150.86"><defs><style>.cls-1{fill:#186734;}.cls-2{fill:#0761ab;}.cls-3{fill:#91bd41;}.cls-4{fill:#0c61ab;}</style></defs><g id="AIS-QAI_Logo_Design" data-name="AIS-QAI Logo Design"><path class="cls-1" d="M424.41,109.12a45.62,45.62,0,0,1-39.63,68.25H339.51A43.51,43.51,0,0,1,296,133.8h31.3a12.29,12.29,0,0,0,8.3,11.61h49.24a13.67,13.67,0,0,0,0-27.33H341.58a45.62,45.62,0,1,1,0-91.24h46.05a43.51,43.51,0,0,1,43.56,43.57h-31.3a12.29,12.29,0,0,0-8.3-11.61h-50a13.66,13.66,0,1,0,0,27.32h43.21A45.78,45.78,0,0,1,424.41,109.12Z" transform="translate(-45.21 -26.52)"/><path class="cls-1" d="M273.38,26.83V177.38H241.46V26.83Z" transform="translate(-45.21 -26.52)"/><path class="cls-1" d="M99.32,79.61l20.05,36L86.89,174.3l-1.71,3.08h-40l4.91-8.87Zm119.55,97.77h-40l-1.71-3.08-29.91-54.06L132.62,93.77,132,92.71l-20-36,.07-.12,1.6-2.89,13-23.56,1.53-3.31h7.65l1.48,3.3,13,23.57L214,168.52Z" transform="translate(-45.21 -26.52)"/><circle class="cls-1" cx="86.83" cy="122.38" r="14.56"/><polygon points="452.13 86.38 408.6 86.38 408.6 63.89 452.23 63.88 452.13 86.38"/><path class="cls-2" d="M670.51,174.21l-2.36,0h-18.8l-2.33,0-.07,0a10.77,10.77,0,0,0-2-2c-1.7-1.83-3.42-3.65-5.11-5.5-.63-.7-1.23-.29-1.82,0a170.56,170.56,0,0,1-18.54,6.9,74.4,74.4,0,0,1-30,2.85c-9.07-.88-17.93-2.64-26.32-6.31-17.66-7.7-29.89-20.75-37.44-38.32a70.11,70.11,0,0,1-5.3-20.49c-.05-.47.13-1.09-.5-1.38V96c.68-1.91.56-3.94.84-5.91,2.06-14.43,7.48-27.35,17.2-38.32,9.13-10.3,20.49-17.13,33.56-21.16a69.84,69.84,0,0,1,19.55-3.51,1.65,1.65,0,0,0,1.23-.57h15.34c.5.86,1.37.49,2.06.57,13.84,1.55,26.58,6,37.68,14.55C661.56,52.58,670.31,67,673.9,84.45c2.6,12.68,2.79,25.38-.83,37.94a73.6,73.6,0,0,1-18.58,32.21c-1,1-2.07,1.86-3.12,2.79-.39.38-1.7.49-.59,1.38,1.88,1.52,3.86,2.92,5.8,4.37q4.39,3.65,9,7a18.81,18.81,0,0,0,2.82,2.21l.24.15C669.17,173.16,670.23,173.29,670.51,174.21Zm-67.69-49.82c.56,0,.81.28,1.1.49q3.66,2.66,7.31,5.33c6.88,5,13.64,10.24,20.77,14.93a1.94,1.94,0,0,0,2.74-.1,50.26,50.26,0,0,0,14.82-19.71c5.69-13.26,6.66-26.94,2.37-40.7-6-19.13-18.52-31.94-38.09-37-12.11-3.14-24.32-2.32-36.23,1.55-10.38,3.37-19.13,9.28-25.33,18.33-11.77,17.18-13.91,35.88-7.13,55.41a48.23,48.23,0,0,0,25.67,28.62c9.26,4.4,19.16,6,29.37,5.89a54.23,54.23,0,0,0,23.63-5.3c1.89-.93,2-.6.63-2.46-4.37-6-9.53-11.37-14.49-16.89C607.55,130,605.09,127.35,602.82,124.39Z" transform="translate(-45.21 -26.52)"/><path class="cls-3" d="M648.23,97.66c0,1.24,0,2.06,0,2.88,0,.32.14.74-.31.85s-.62-.21-.84-.47a4.75,4.75,0,0,1-.9-2.1c-.19-.75-.33-1.51-.56-2.24-.28-.91-.71-1.67-1.9-1.51a3.25,3.25,0,0,1-2.38-.87c-.51-.37-1.05-.85-1.7-.48A1.54,1.54,0,0,0,639,95.5c.3,1.06-.19,1.54-1,2.08a5.77,5.77,0,0,0-2.2,4.24c-.27,2.24-1,3.88-3.41,4.32-1.09.2-1.09,1.09-1.2,1.88A37.25,37.25,0,0,1,627.58,120a14.61,14.61,0,0,1-9,7.67,1.77,1.77,0,0,1-2-.51,11.32,11.32,0,0,1-2.85-6.65c-.43-3.24-.75-6.5-1.13-9.75a15.67,15.67,0,0,0-1.43-4.68,3.41,3.41,0,0,0-3.31-1.91c-1.4,0-2.8,0-4.19,0-1.81-.09-2.4-.7-2.76-2.45a46.89,46.89,0,0,1-1-6.56A6.63,6.63,0,0,1,602,89.65c1-1,2.08-2,3.14-3,.47-.43.82-.91.34-1.49-1.26-1.52-.69-3.08-.16-4.64.37-1.09.88-2.14,1.18-3.25a3.22,3.22,0,0,1,2.23-2.22c2.36-.91,4.86-.54,7.3-.81A7.55,7.55,0,0,0,620,73c.79-.6,1.3-1.17.43-2.09-.53-.55-.39-1.82-1.47-1.73-1.24.11-1.14,1.38-1.49,2.23a3,3,0,0,0-.18.85c-.1,1.23-.8,1.39-1.81,1.06s-1.81-1.36-3.05-.54c-.3.2-.36-.3-.42-.57a5.59,5.59,0,0,1,3.35-5.51,1.7,1.7,0,0,0,1.07-.63c1.87-2.66,4.45-2.43,7.13-1.68,2,.55,3.87,1.16,5.82,1.72a4.46,4.46,0,0,0,1.84.31c2.43-.44,4.05.89,5.53,2.44a37.13,37.13,0,0,1,4.22,5,45.58,45.58,0,0,1,3.18,5,39.5,39.5,0,0,1,3.72,13.41A29.84,29.84,0,0,1,648.23,97.66ZM608.72,84.88l1.17.07c2.45.08,5.05-.58,7.1,1.46a.44.44,0,0,0,.39.06c2-.86,4-.18,5.93.13a3.65,3.65,0,0,0,2.26-.2c.34-.17.82-.29.83-.71s-.56-.42-.89-.49a6.07,6.07,0,0,0-2.4-.39c-2,.4-2.59-.71-3-2.31-.19-.68-.35-1.61-1.54-1.77.87,1.69-.27,2.62-1.14,3.58a1.25,1.25,0,0,1-2.1-.11c-.5-.64-.89-1.38-1.4-2-1.21-1.48-2.44-1.45-3.53.09C609.81,83.06,609.34,83.89,608.72,84.88Z" transform="translate(-45.21 -26.52)"/><path class="cls-3" d="M565.69,100.47a.94.94,0,0,0,1-.48c1-1.67,2.61-1.52,4.23-1.31a37.33,37.33,0,0,0,4.7.73.84.84,0,0,1,.91.55,5.48,5.48,0,0,0,3.08,2.88c.68.35,1.38.68,2.06,1,2,1.15,2.59,2.17,2.26,4.47a1.42,1.42,0,0,0,1,1.77c.91.31,1.84.55,2.75.86s1.28.75,1,1.62c-.74,2.34-.85,4.83-1.67,7.16a6.11,6.11,0,0,1-1.54,2.74,2,2,0,0,0-.69,1.79c.26,3.64-1.5,6.38-4.18,8.44-1.87,1.43-2.19,2.16-1.12,5.12a1.23,1.23,0,0,0,.12.26c.34.63.93,1.41.37,2a2.32,2.32,0,0,1-2.46.22,4.47,4.47,0,0,1-2.08-1.72c-1.2-1.78-2.07-3.76-3.8-5.21-1-.82-.74-2.34-.79-3.57a77.29,77.29,0,0,0-.59-9.37c-.4-2.46-1.27-4.55-3.94-5.31-1.06-.3-1.12-1.21-1.3-2.05-.66-3-.56-6.14-1.16-9.16a23.13,23.13,0,0,0-.68-3.25c-.62-1.72-1.34-3.41-3.52-3.77a22,22,0,0,1-2.87-1,2.06,2.06,0,0,1-1.63-2.6,3.32,3.32,0,0,0,.07-1.43c-.19-.72-.63-1.42-1.48-.69s-1.18.17-1.67-.33c-2.07-2.17-2.82-5-3.78-7.72-.39-1.1.48-2.31.93-3.41,2.45-5.91,6.79-10.29,11.64-14.25,1.75-1.43,3.54-2.82,5.23-4.32a1.06,1.06,0,0,1,1.7,0,12,12,0,0,0,8.47,2.66,2,2,0,0,0,2.24-1.58c.16-.61.45-1.3,1.17-1.29s.79.76,1,1.27c.72,1.74,1.51,3.46.55,5.39-.42.83.4.92.89,1.14A7,7,0,0,1,586.05,73c.37,1,.13,1.54-.9,1.79s-2,.27-1.38,1.79c.25.58-.42.72-.81.73-2.2,0-3.68,1.32-5,2.79a14.7,14.7,0,0,1-5.55,4.19,5.16,5.16,0,0,0-3.21,5.92c.09.6.39,1.34-.37,1.66a1.68,1.68,0,0,1-1.93-.65,3,3,0,0,1-.49-.88c-.73-2-.85-2.07-3.23-2a4.05,4.05,0,0,0-3.7,2.55c-.2.74.34,1.18.68,1.65s.88,0,1.26-.17c1.63-.89,1.8-.81,1.86,1a3,3,0,0,0,.87,2.08C565.55,96.87,566.43,98.39,565.69,100.47ZM579.17,69c.06-.28-.14-.43-.45-.55a4.71,4.71,0,0,0-3.7,1.23c-.12.21-.13.36.08.46.6.27.76,1.38,1.73.95S578.8,70.25,579.17,69Z" transform="translate(-45.21 -26.52)"/><path class="cls-3" d="M592.48,56.39l12.73.79c1,.06.64.64.44,1.1A25.59,25.59,0,0,1,601.54,65c-1,1.25-1.06,1.22.48,1.63.55.14,1.37,0,1.34,1,0,.55.3,1.25-.33,1.59a2,2,0,0,1-2.19-.12,7.2,7.2,0,0,1-1.37-1.27c-.78-1-1.56-.9-2.48-.23a13.94,13.94,0,0,1-5.81,2.75,3.71,3.71,0,0,1-4-4.14c.11-.59.61-.54,1-.74.78-.45,1.51-1,1.38-2s-1.51-1.1-1.92-2l-1.14.6c-.66.34-1.12.23-1.23-.59a4.2,4.2,0,0,1,2.55-4.28A15.33,15.33,0,0,1,592.48,56.39Z" transform="translate(-45.21 -26.52)"/><path class="cls-3" d="M613.8,59.53a4,4,0,0,1-.61,0c-1.16-.27-2.35-.7-2.53-2s1.16-1.18,1.86-1.67a1.38,1.38,0,0,1,.39-.18,4.39,4.39,0,0,1,3.21,0,11.73,11.73,0,0,1-.86,3.54C614.84,59.64,614.28,59.47,613.8,59.53Z" transform="translate(-45.21 -26.52)"/><path class="cls-3" d="M605.08,70.62c.09-.74-.11-1.46.83-1.59s1.15.51,1.34,1.18a8.79,8.79,0,0,0,1.09,2.94c.48.67-.24,1.26-.6,1.77a1.42,1.42,0,0,1-1.51.64c-.56-.18-.49-.87-.58-1.38C605.44,73,605.25,71.71,605.08,70.62Z" transform="translate(-45.21 -26.52)"/><path class="cls-4" d="M815.14,173.08q-11.6-26.39-23.24-52.77Q771.83,75,751.66,29.7a1.58,1.58,0,0,0-1.72-1.12c-4.05,0-8.1.05-12.16,0a1.49,1.49,0,0,0-1.6,1.08c-1,2.31-2,4.58-3.06,6.88q-12.06,27.28-23.74,54.75Q697.2,120,685,148.75c-2.59,6.07-5.23,12.12-7.84,18.16a14.5,14.5,0,0,1-1.39,3.21l-1.54,4h.08v.07l16.74,0h2.92l1.74-.07q2.67-6.48,5.35-13l6-14.4,5.19-11.43h0c.4-.29.36-.79.57-1.16l.05-.12a1.55,1.55,0,0,0,.51-1l.07-.05v-.08a2.16,2.16,0,0,1,2.07-1.35q29.22.08,58.44,0a1.68,1.68,0,0,1,1.82,1.17,77.11,77.11,0,0,0,3.6,7.84h0a17.09,17.09,0,0,0,1.73,3.88v.08l.07.05a6.42,6.42,0,0,0,1.11,2.4c0,.18.07.38.13.55,3.91,8.61,7.83,17.18,11.69,25.8.38.83.92.81,1.61.81h19.9C815.36,173.71,815.27,173.39,815.14,173.08Zm-50.55-60.39H724.41c-2.55,0-2.55,0-1.48-2.23,1-3.39,2.64-6.55,3.87-9.85.69-1.85,1.45-3.66,2.18-5.48q2-4.72,4-9.46a2,2,0,0,0,0-.69c3.88-7.67,6.55-15.83,10-23.93,1.28,2.6,2.49,5,3.66,7.43,6.2,13,11.81,26.25,17.53,39.46a3.1,3.1,0,0,1,.08.42,7.71,7.71,0,0,1,1.06,2.36c0,.09,0,.2.08.3C766.36,112.69,766.36,112.69,764.59,112.69Z" transform="translate(-45.21 -26.52)"/><path class="cls-4" d="M841.48,28.57c-.22,21.41-.09,61.12-.09,82.54,0,20.91-.19,42.22.12,63.12H818.86c.2-42.33.18-103.33,0-145.66Z" transform="translate(-45.21 -26.52)"/></g></svg>