<svg xmlns="http://www.w3.org/2000/svg" xmlns:xlink="http://www.w3.org/1999/xlink" viewBox="0 0 500 500"><defs><style>.cls-1{fill:url(#linear-gradient);}.cls-2{fill:none;stroke:#060;stroke-linecap:round;stroke-miterlimit:10;stroke-width:9px;}</style><linearGradient id="linear-gradient" y1="250" x2="500" y2="250" gradientUnits="userSpaceOnUse"><stop offset="0.01" stop-color="#060"/><stop offset="0.2" stop-color="#006f00"/><stop offset="0.52" stop-color="#008700"/><stop offset="0.92" stop-color="#00af00"/><stop offset="1" stop-color="#00b700"/></linearGradient></defs><g id="Layer_4" data-name="Layer 4"><path class="cls-1" d="M250,0C111.93,0,0,111.93,0,250S111.93,500,250,500,500,388.07,500,250,388.07,0,250,0Zm0,469.24C128.92,469.24,30.76,371.08,30.76,250S128.92,30.76,250,30.76,469.24,128.92,469.24,250,371.08,469.24,250,469.24Z"/><polyline class="cls-2" points="278.53 317.61 279.07 202.25 211.82 181.86 157.8 201.35 157.8 315.58 217.9 297.04 278.53 317.61 338.09 298.11 338.09 182.39 279.07 202.25 218.05 183.75 217.9 297.04"/></g></svg>