<svg id="Layer_2" data-name="Layer 2" xmlns="http://www.w3.org/2000/svg" xmlns:xlink="http://www.w3.org/1999/xlink" viewBox="0 0 500 500"><defs><style>.cls-1{fill:url(#linear-gradient);}.cls-2,.cls-3{fill:none;stroke:#060;stroke-miterlimit:10;stroke-width:3px;}.cls-2{stroke-linecap:square;}.cls-3{stroke-linecap:round;}</style><linearGradient id="linear-gradient" y1="250" x2="500" y2="250" gradientUnits="userSpaceOnUse"><stop offset="0.01" stop-color="#060"/><stop offset="0.2" stop-color="#006f00"/><stop offset="0.52" stop-color="#008700"/><stop offset="0.92" stop-color="#00af00"/><stop offset="1" stop-color="#00b700"/></linearGradient></defs><path class="cls-1" d="M250,0C111.93,0,0,111.93,0,250S111.93,500,250,500,500,388.07,500,250,388.07,0,250,0Zm0,469.24C128.92,469.24,30.76,371.08,30.76,250S128.92,30.76,250,30.76,469.24,128.92,469.24,250,371.08,469.24,250,469.24Z"/><line class="cls-2" x1="165.34" y1="238.39" x2="165.34" y2="327.11"/><line class="cls-2" x1="334.66" y1="327.11" x2="165.34" y2="327.11"/><line class="cls-2" x1="334.66" y1="238.39" x2="334.66" y2="327.11"/><line class="cls-2" x1="165.34" y1="238.39" x2="189.17" y2="238.39"/><line class="cls-2" x1="311.53" y1="238.39" x2="334.66" y2="238.39"/><line class="cls-3" x1="165.34" y1="238.39" x2="238.31" y2="277.27"/><line class="cls-3" x1="334.66" y1="238.39" x2="261.69" y2="277.27"/><line class="cls-3" x1="165.34" y1="327.11" x2="250.16" y2="272.02"/><line class="cls-3" x1="334.66" y1="327.11" x2="250.16" y2="272.02"/><line class="cls-3" x1="189.16" y1="251.08" x2="189.19" y2="171.62"/><line class="cls-3" x1="311.53" y1="171.14" x2="190.62" y2="171.14"/><line class="cls-3" x1="311.53" y1="171.14" x2="311.53" y2="250.72"/><line class="cls-3" x1="165.34" y1="238.39" x2="189.17" y2="222.73"/><line class="cls-3" x1="334.66" y1="238.39" x2="311.53" y2="222.73"/><circle class="cls-3" cx="248.56" cy="215.02" r="9.24"/><path class="cls-3" d="M273.12,241.43H248.56c-13.24,0-21.82-10.55-21.82-26.41,0-7.09,6.55-20.92,21.82-20.92,14.19-.78,26.17,9.66,24.56,25-1.49,12.76-13.71,8-16.74.86"/></svg>