<svg xmlns="http://www.w3.org/2000/svg" xmlns:xlink="http://www.w3.org/1999/xlink" viewBox="0 0 500 500"><defs><style>.cls-1{fill:url(#linear-gradient);}.cls-2,.cls-3{fill:none;stroke:#060;stroke-miterlimit:10;stroke-width:5px;}.cls-2{stroke-linecap:round;}.cls-3{stroke-linecap:square;}</style><linearGradient id="linear-gradient" y1="250" x2="500" y2="250" gradientUnits="userSpaceOnUse"><stop offset="0.01" stop-color="#060"/><stop offset="0.2" stop-color="#006f00"/><stop offset="0.52" stop-color="#008700"/><stop offset="0.92" stop-color="#00af00"/><stop offset="1" stop-color="#00b700"/></linearGradient></defs><g id="Layer_3" data-name="Layer 3"><path class="cls-1" d="M250,0C111.93,0,0,111.93,0,250S111.93,500,250,500,500,388.07,500,250,388.07,0,250,0Zm0,469.24C128.92,469.24,30.76,371.08,30.76,250S128.92,30.76,250,30.76,469.24,128.92,469.24,250,371.08,469.24,250,469.24Z"/><path class="cls-2" d="M258.43,199c26.71,3.16,40.42,25.57,43.16,43.34"/><path class="cls-2" d="M260.69,167.37c34.82,4,69.52,39.82,72.86,71.78"/><path class="cls-3" d="M179.65,189.42c17.08-17.08,17.08-17.08,35.77,1.61"/><path class="cls-3" d="M219,194.67c16.23,16.23,16.23,16.22,1.39,31.07"/><path class="cls-2" d="M179.65,189.42c-32.28,32.28,11.71,81,28,99"/><path class="cls-3" d="M311,321.13c17.08-17.08,17.08-17.08-1.61-35.77"/><path class="cls-3" d="M305.77,281.74c-16.22-16.23-16.22-16.23-31.07-1.38"/><path class="cls-2" d="M311,321.13c-32.27,32.28-84.07-14.73-103.59-33"/><path class="cls-2" d="M220.43,225.74c-15.84,13.41-1.39,20.92,13,39.16"/><path class="cls-2" d="M274.7,280.36c-13.41,15.83-20.92,1.38-39.16-13"/></g></svg>