<svg id="Layer_1" data-name="Layer 1" xmlns="http://www.w3.org/2000/svg" viewBox="0 0 773.9 612">
<defs>
<style>.sls-1{fill:#006600;}</style>
</defs>
<path class="sls-1" d="M602.8,280.9h26.5a36.7,36.7,0,0,0,0-73h-8.9a112.1,112.1,0,0,0-14.2-50.5h23.1a36.6,36.6,0,0,0,0-72.9H610.9c6.7-14.7,8.3-28.1-1.2-41.6a36.7,36.7,0,0,0-51-9A36.3,36.3,0,0,0,545,52.4c-3.6,10.2-9.9,18.4-14.9,32.1H487.5c1.1-2.4,2.2-5.1,3.3-8a36.7,36.7,0,0,0-69.3-24.1,85,85,0,0,1-6.5,14,155.9,155.9,0,0,0-8.4,18.1H364.1c1.1-2.5,2.2-5.2,3.2-8A36.7,36.7,0,1,0,298,52.4h0a89.5,89.5,0,0,1-6.6,14,173.7,173.7,0,0,0-8.3,18.1H240.4c6.7-14.7,8.3-28.1-1.2-41.6a36.7,36.7,0,0,0-64.8,9.5c-3.5,10.2-9.8,18.4-14.8,32.1H144.7a36.6,36.6,0,0,0,0,72.9h72.9c1.1,2.3,2.3,4.5,3.4,6.7a97.8,97.8,0,0,1,12.9,51.8h0c0,48.4-23.9,53.8-23.9,90a65.9,65.9,0,0,0,4.7,25.2H172.4a112.8,112.8,0,0,1-2.5-25.2c0-50.6,23.9-52.7,23.9-90.3a70.2,70.2,0,0,0-9.1-34.6,8.2,8.2,0,0,0-14.5,7.4,59.9,59.9,0,0,1,6.7,19.3H144.7a36.6,36.6,0,0,0,0,72.9h10.8a147.7,147.7,0,0,0,0,50.5H144.7a36.6,36.6,0,0,0,0,72.9h32.1c-2.5,17.7-13.9,26.7-19.9,50.5H144.7a36.7,36.7,0,0,0,0,73h15.2c4.8,13.4,11.2,22.1,14.7,32.1a36.7,36.7,0,0,0,69.3-24q-1.7-4.4-3.3-8.1h42.7c4.9,13.2,11.3,22.2,14.7,32.1a36.7,36.7,0,0,0,69.3-24h0q-1.7-4.4-3.3-8.1h42.8c4.9,13.4,11.2,22.1,14.6,32.1a36.7,36.7,0,0,0,69.3-24h0c-1-2.9-2.2-5.6-3.3-8.1h42.8c4.9,13.4,11.2,22.1,14.6,32.1a36.7,36.7,0,0,0,64.8,9.5c9.8-14,7.6-27.5,1.2-41.6h18.5a36.7,36.7,0,0,0,0-73H606.2A109,109,0,0,0,620.4,404h8.9a36.6,36.6,0,0,0,0-72.9H603.1a53.2,53.2,0,0,1,0-50.5ZM144.7,264.6a20.2,20.2,0,1,1,0-40.3h32c-2.2,14.8-10.4,23.2-16.8,40.3Zm504.7-20.2a20.3,20.3,0,0,1-20.1,20.2H487.6a105.9,105.9,0,0,0,9.3-40.3H629.3A20.1,20.1,0,0,1,649.4,244.4ZM373.5,388a108,108,0,0,0-9.4-40.3H530.4c6.1,16.8,14.3,25.8,16.6,40.3Zm30.3,66.8H359.3a108.1,108.1,0,0,0,14.2-50.5h50.1C421.1,421.9,409.8,430.9,403.8,454.8Zm-106.5,0c6.6-21.6,19.8-31.1,19.8-58.5s-13.2-37.2-19.8-58.8v-.6a123.2,123.2,0,0,1-1.5-56h42.5c-9.4,23.8-3.7,44.2,6.3,63.6a97.2,97.2,0,0,1,12.9,51.6h0a94.7,94.7,0,0,1-12.8,51.7c-1.2,2.2-2.4,4.4-3.5,6.8Zm-61.4,0a109.3,109.3,0,0,0,14.2-50.5h50.1c-2.5,17.6-13.9,26.7-19.9,50.5ZM291.6,185a70.7,70.7,0,0,1,8.6,22.9H250.1a112.1,112.1,0,0,0-14.2-50.5h44.5A118.4,118.4,0,0,0,291.6,185Zm-41.5,39.3H423.6c-3.5,23.5-23.4,32.6-23.4,81.8a134.4,134.4,0,0,0,2.2,25.3H356a53.8,53.8,0,0,1,0-50.5h18.3a8.2,8.2,0,0,0,8.2-8.2,8.2,8.2,0,0,0-8.2-8.1H240.8A107.8,107.8,0,0,0,250.1,224.3ZM547,207.9H496.9a110.9,110.9,0,0,0-14.2-50.5h44.5c6.1,24,17.2,33.1,19.8,50.5Zm-82.5-50.5,3.3,6.7a98.1,98.1,0,0,1,13,52.1,95.6,95.6,0,0,1-12.9,51.4c-11.1,20.9-15.2,41.4-6.3,63.8H419.1a113.1,113.1,0,0,1-2.5-25.3,94.3,94.3,0,0,1,12.9-51.6c25.8-49.2,0-69.5-8.7-97.1Zm-60.7,0c6,23.6,17.3,33.2,19.8,50.5H373.5a110.9,110.9,0,0,0-14.2-50.5Zm122.1,174H479.5a53.2,53.2,0,0,1,0-50.5h46.4A147.7,147.7,0,0,0,525.9,331.4ZM649.4,121a20.1,20.1,0,0,1-20.1,20.1H598.9a47.6,47.6,0,0,1-2.3-15.4,51.8,51.8,0,0,1,6.1-24.9h26.6A20.3,20.3,0,0,1,649.4,121Zm-89-63.3a20.7,20.7,0,0,1,19.4-14,20.2,20.2,0,0,1,16.5,8.6c14.1,20.1-16.1,36.6-16.1,73.3,0,34.4,21.5,40.7,23.7,82.2H563.4c-3.3-30.6-23.5-36-23.5-82.2.1-38.7,13.6-47.6,20.5-67.9Zm-36,83.4H352a50.4,50.4,0,0,1-2.3-15.4,54.2,54.2,0,0,1,6.1-24.9H525.7a151.2,151.2,0,0,0-1.3,40.3Zm-94.9-67A127.3,127.3,0,0,0,437,57.7a20.3,20.3,0,1,1,38.4,13.2,110.6,110.6,0,0,1-6.1,13.6h-45C425.9,80.8,427.7,77.4,429.5,74.1ZM313.7,57.7a20.6,20.6,0,0,1,19.3-14,20,20,0,0,1,16.6,8.6c14.2,20.2-16,36.6-16,73.3,0,34.3,21.4,40.6,23.7,82.2H316.6c-3.3-30.2-23.5-36.6-23.5-82.2,0-38.9,13.5-47.8,20.4-68.1Zm-123.4,0a20.3,20.3,0,0,1,35.9-5.4c7.5,10.5,2.4,20.6-3.6,32.2h-45c4-9.5,9.1-16.9,12.5-26.8ZM124.5,121a20.3,20.3,0,0,1,20.2-20.2H278.9a151.2,151.2,0,0,0-1.4,40.3H144.7A20.1,20.1,0,0,1,124.5,121Zm108,159.9h46.4a147.7,147.7,0,0,0,0,50.5H232.6A53.5,53.5,0,0,1,232.5,280.9Zm-108,86.9a20.1,20.1,0,0,1,20.2-20.1H283.5c6.1,16.8,14.4,25.8,16.6,40.3H144.7A20.3,20.3,0,0,1,124.5,367.8Zm20.2,143.6a20.2,20.2,0,1,1,0-40.3h9.4c-.5,5.1-.8,10.3-.8,15.4a138.1,138.1,0,0,0,2.2,24.9ZM226,559.9a20.2,20.2,0,0,1-16.7,8.7,20.7,20.7,0,0,1-19.3-14c-6.9-20.2-20.3-30.2-20.3-68.1,0-46.8,20.2-51.3,23.5-82.2h40.5c-2.2,42.3-23.7,47.1-23.7,82.2,0,25,11.8,36.2,18.5,54.9A20,20,0,0,1,226,559.9Zm125.9-18.3a20.4,20.4,0,0,1-12.4,26.1,21.9,21.9,0,0,1-6.7,1.1,20.8,20.8,0,0,1-19.4-14c-3.3-9.8-8.3-17.4-12.5-26.8h44.9A117.8,117.8,0,0,1,351.9,541.6ZM232.4,511.7a54.7,54.7,0,0,1-3.9-40.3H401.2a131.3,131.3,0,0,0-.8,15.4,138.9,138.9,0,0,0,2.2,24.9Zm240.4,48.5a19.9,19.9,0,0,1-16.6,8.6,20.6,20.6,0,0,1-19.3-14c-7-20.1-20.4-30.1-20.4-68,0-47.1,20.3-51.3,23.6-82.2h40.5a93.4,93.4,0,0,1-12.7,43.7c-24.9,47.1-1.5,68.4,7.4,93.3a19.9,19.9,0,0,1-2.5,18.3Zm123.5,0a20.1,20.1,0,0,1-16.7,8.6,20.8,20.8,0,0,1-19.3-14c-3.4-9.7-8.4-17.4-12.5-26.8h44.9c5.9,11.4,11,21.3,3.6,31.9Zm53.1-68.7a20.1,20.1,0,0,1-20.1,20.2h-150a51.6,51.6,0,0,1-6.1-24.9,50.2,50.2,0,0,1,2.1-15.4h154a20.2,20.2,0,0,1,20.1,19.9ZM482.8,454.9a108,108,0,0,0,14.1-50.5H547a54.6,54.6,0,0,1-6.3,18.6,8.2,8.2,0,0,0,14.5,7.5h0a69,69,0,0,0,8.7-34.1c0-26.7-13.2-37.2-19.8-58.8a124.5,124.5,0,0,1-1.7-56.6h42.5c-8.8,22.5-4.6,42.4,6.4,63.6a97.2,97.2,0,0,1,12.9,51.6h0a95.7,95.7,0,0,1-12.9,51.7l-3.5,6.8Zm166.6-87a20.2,20.2,0,0,1-20.1,20.2h-8.9a109.9,109.9,0,0,0-9.4-40.3h18.3A20.1,20.1,0,0,1,649.4,367.9Z"/>
</svg>