<svg id="Layer_1" data-name="Layer 1" xmlns="http://www.w3.org/2000/svg" viewBox="0 0 753.39 590.93"><defs><style>.cls-1{fill:none;stroke:#166734;stroke-linecap:round;stroke-linejoin:round;stroke-width:10px;}</style></defs><path class="cls-1" d="M641,596.46H177m29.52-38.59h27.7m62.79-107.82h23.58M477,343.1h33m31.84,214.77h33M379.16,181.37H312.08v-28h67.08Zm-92.24,0H219.85v-28h67.07ZM15.26,458,173.13,436.4M600,532.64H540.88V473.51H600Zm0-100.49H540.88V373H600ZM494.63,532.64H435.51V473.51h59.12Zm-105.37,0H330.13V473.51h59.13Zm-105.37,0H224.76V473.51h59.13ZM494.63,432.15H435.51V373h59.12Zm-105.37,0H330.13V373h59.13Zm-105.37,0H224.76V373h59.13ZM149,495H59.13m86.06,51.09H63V495h82.22ZM31.44,456.42v140H173.13V437.72M644.22,283.83H169.92l-7.19,31H651.41Zm-3.21,31V596.46H173.13V314.85m113.94-31L282.51,181.5m-58.25,0L219.7,283.83m159.61,0L374.75,181.7m-58.27-.06-4.55,102.19M641,596.46H753a5.6,5.6,0,0,0,5.62-5.61V576.39a5.62,5.62,0,0,0-5.62-5.61h-5.28M378.83,206.08h8a20.18,20.18,0,0,1,20,19.55l1.13,58.2m3.47-149.61a50.62,50.62,0,0,0-3.4-101A68.53,68.53,0,0,0,297.23,62.12,37.45,37.45,0,0,0,239.3,79.3a26.68,26.68,0,0,0-9.61-1.85,27,27,0,1,0,0,54M703,464.33V408.15M642.31,570.78H748.58V424.94c0-4.47-3.46-8.63-9.13-10.64-12.83-4.56-41.3-8.11-98.08-8.41" transform="translate(-10.26 -10.54)"/></svg>