<svg id="Layer_1" data-name="Layer 1" xmlns="http://www.w3.org/2000/svg" viewBox="0 0 576.07 492.46"><defs><style>.cls-1,.cls-2{stroke:#000;stroke-miterlimit:10;}.cls-2{fill:none;stroke-width:25px;}</style></defs><path class="cls-1" d="M21.11,133.54H558.62a17,17,0,0,1,17,17V267.17a11.72,11.72,0,0,1-11.72,11.72H12.22A11.72,11.72,0,0,1,.5,267.17v-113A20.61,20.61,0,0,1,21.11,133.54Z"/><path class="cls-1" d="M34.31,312.38H253.14a0,0,0,0,1,0,0V492a0,0,0,0,1,0,0H59.61a25.3,25.3,0,0,1-25.3-25.3V312.38A0,0,0,0,1,34.31,312.38Z"/><path class="cls-1" d="M357.84,325.46H551.37a0,0,0,0,1,0,0V505a0,0,0,0,1,0,0H332.53a0,0,0,0,1,0,0V350.77A25.3,25.3,0,0,1,357.84,325.46Z" transform="translate(874.3 817.42) rotate(-180)"/><path class="cls-2" d="M146.42,174.24c-98.15-101.05,53.8-271.17,151.22-10.9" transform="translate(-9.6 -13.08)"/><path class="cls-2" d="M448.86,174.24C547,73.19,395.06-96.93,297.64,163.34" transform="translate(-9.6 -13.08)"/></svg>