<svg width="6em" xmlns="http://www.w3.org/2000/svg" viewBox="0 0 200 200"><title>QAI_Icons</title><circle fill="#0061ab" cx="100" cy="100" r="100"></circle><path fill="#fff" d="M105,42.74H95A49.94,49.94,0,0,0,45.12,92.62v26.93a2.79,2.79,0,0,0,2.8,2.79h4.19v2a2.8,2.8,0,0,0,2.8,2.8H60a9.11,9.11,0,0,0,9.09-9.1V96.17A9.1,9.1,0,0,0,60,87.08H54.91a2.79,2.79,0,0,0-2.8,2.79v2H50.73A44.33,44.33,0,0,1,95,48.33h10a44.33,44.33,0,0,1,44.27,43.51h-1.38v-2a2.79,2.79,0,0,0-2.8-2.79H140a9.1,9.1,0,0,0-9.09,9.09V118a9.11,9.11,0,0,0,9.09,9.1h5.07a2.76,2.76,0,0,0,2-.83v6A14.69,14.69,0,0,1,132.4,147H115.79a7.49,7.49,0,0,0-6.93-4.68h-7.55a7.48,7.48,0,0,0,0,14.95h7.55a7.49,7.49,0,0,0,6.93-4.68H132.4a20.29,20.29,0,0,0,20.26-20.27v-10a2.8,2.8,0,0,0,2.22-2.73V92.62A49.94,49.94,0,0,0,105,42.74Z"></path></svg>